<svg xmlns="http://www.w3.org/2000/svg" xmlns:xlink="http://www.w3.org/1999/xlink" width="2000" zoomAndPan="magnify" viewBox="0 0 1500 1499.999933" height="2000" preserveAspectRatio="xMidYMid meet" version="1.0"><defs><g/><clipPath id="dac371e2cb"><path d="M 310.667969 656.136719 L 592.667969 656.136719 L 592.667969 939.636719 L 310.667969 939.636719 Z M 310.667969 656.136719 " clip-rule="nonzero"/></clipPath><clipPath id="e1b6c0b736"><path d="M 0.667969 0.136719 L 282.667969 0.136719 L 282.667969 283.496094 L 0.667969 283.496094 Z M 0.667969 0.136719 " clip-rule="nonzero"/></clipPath><clipPath id="f90e186e02"><rect x="0" width="283" y="0" height="284"/></clipPath><clipPath id="c86a971406"><path d="M 608.070312 557.742188 L 648.570312 557.742188 L 648.570312 598.242188 L 608.070312 598.242188 Z M 608.070312 557.742188 " clip-rule="nonzero"/></clipPath><clipPath id="68501903ba"><path d="M 0.160156 0.789062 L 40.570312 0.789062 L 40.570312 41.242188 L 0.160156 41.242188 Z M 0.160156 0.789062 " clip-rule="nonzero"/></clipPath><clipPath id="0e509abbf9"><rect x="0" width="41" y="0" height="42"/></clipPath><clipPath id="1ee1cfba12"><path d="M 468.917969 516 L 592.667969 516 L 592.667969 639.722656 L 468.917969 639.722656 Z M 468.917969 516 " clip-rule="nonzero"/></clipPath><clipPath id="15969fd3d7"><path d="M 0.917969 0.238281 L 124.386719 0.238281 L 124.386719 123.722656 L 0.917969 123.722656 Z M 0.917969 0.238281 " clip-rule="nonzero"/></clipPath><clipPath id="b0b6465368"><rect x="0" width="125" y="0" height="124"/></clipPath><clipPath id="1f7bc11eec"><path d="M 608.332031 613.695312 L 696.082031 613.695312 L 696.082031 701.445312 L 608.332031 701.445312 Z M 608.332031 613.695312 " clip-rule="nonzero"/></clipPath><clipPath id="baf4eee829"><path d="M 0.332031 1 L 87.976562 1 L 87.976562 88.445312 L 0.332031 88.445312 Z M 0.332031 1 " clip-rule="nonzero"/></clipPath><clipPath id="13dfd7142e"><rect x="0" width="89" y="0" height="89"/></clipPath><clipPath id="391f5cb32c"><rect x="0" width="590" y="0" height="170"/></clipPath><clipPath id="6c4cdcf7dc"><rect x="0" width="169" y="0" height="330"/></clipPath></defs><rect x="-150" width="1800" fill="#ffffff" y="-149.999993" height="1799.99992" fill-opacity="1"/><rect x="-150" width="1800" fill="#ffffff" y="-149.999993" height="1799.99992" fill-opacity="1"/><g clip-path="url(#dac371e2cb)"><g transform="matrix(1, 0, 0, 1, 310, 656)"><g clip-path="url(#f90e186e02)"><g clip-path="url(#e1b6c0b736)"><path fill="#047638" d="M 140.890625 283.496094 L 0.820312 283.496094 L 0.820312 140.203125 C 0.820312 62.84375 63.53125 0.136719 140.890625 0.136719 L 282.570312 0.136719 L 282.570312 141.816406 C 282.570312 220.0625 219.136719 283.496094 140.890625 283.496094 Z M 140.890625 283.496094 " fill-opacity="1" fill-rule="nonzero"/></g></g></g></g><g clip-path="url(#c86a971406)"><g transform="matrix(1, 0, 0, 1, 608, 557)"><g clip-path="url(#0e509abbf9)"><g clip-path="url(#68501903ba)"><path fill="#047638" d="M 20.28125 41.289062 L 0.238281 41.289062 L 0.238281 20.785156 C 0.238281 9.714844 9.214844 0.742188 20.28125 0.742188 L 40.554688 0.742188 L 40.554688 21.015625 C 40.554688 32.210938 31.480469 41.289062 20.28125 41.289062 Z M 20.28125 41.289062 " fill-opacity="1" fill-rule="nonzero"/></g></g></g></g><g clip-path="url(#1ee1cfba12)"><g transform="matrix(1, 0, 0, 1, 468, 516)"><g clip-path="url(#b0b6465368)"><g clip-path="url(#15969fd3d7)"><path fill="#ffd426" d="M 0.636719 61.664062 L 0.636719 0.351562 L 63.359375 0.351562 C 97.21875 0.351562 124.667969 27.804688 124.667969 61.664062 L 124.667969 123.679688 L 62.652344 123.679688 C 28.402344 123.679688 0.636719 95.914062 0.636719 61.664062 Z M 0.636719 61.664062 " fill-opacity="1" fill-rule="nonzero"/></g></g></g></g><g clip-path="url(#1f7bc11eec)"><g transform="matrix(1, 0, 0, 1, 608, 613)"><g clip-path="url(#13dfd7142e)"><g clip-path="url(#baf4eee829)"><path fill="#1fca4f" d="M 0.226562 44.488281 L 0.226562 1.0625 L 44.652344 1.0625 C 68.636719 1.0625 88.082031 20.503906 88.082031 44.488281 L 88.082031 88.417969 L 44.152344 88.417969 C 19.894531 88.417969 0.226562 68.75 0.226562 44.488281 Z M 0.226562 44.488281 " fill-opacity="1" fill-rule="nonzero"/></g></g></g></g><g transform="matrix(1, 0, 0, 1, 608, 711)"><g clip-path="url(#391f5cb32c)"><g fill="#047638" fill-opacity="1"><g transform="translate(0.226368, 132.100537)"><g><path d="M 54.625 34.75 C 46.78125 34.75 40.066406 33.769531 34.484375 31.8125 C 28.898438 29.851562 24.328125 27.207031 20.765625 23.875 C 17.203125 20.550781 14.539062 16.8125 12.78125 12.65625 C 11.03125 8.5 10.066406 4.25 9.890625 -0.09375 L 30.21875 -0.09375 C 30.863281 3.113281 32.046875 5.960938 33.765625 8.453125 C 35.492188 10.953125 38.035156 12.929688 41.390625 14.390625 C 44.753906 15.847656 49.140625 16.578125 54.546875 16.578125 C 59.535156 16.578125 63.78125 15.863281 67.28125 14.4375 C 70.789062 13.007812 73.644531 11.046875 75.84375 8.546875 C 78.039062 6.054688 79.644531 3.191406 80.65625 -0.046875 C 81.664062 -3.285156 82.171875 -6.6875 82.171875 -10.25 L 82.171875 -19.609375 C 79.078125 -13.609375 74.722656 -9.210938 69.109375 -6.421875 C 63.492188 -3.628906 57.269531 -2.234375 50.4375 -2.234375 C 43.96875 -2.234375 38.015625 -3.421875 32.578125 -5.796875 C 27.140625 -8.171875 22.457031 -11.4375 18.53125 -15.59375 C 14.613281 -19.75 11.570312 -24.578125 9.40625 -30.078125 C 7.238281 -35.578125 6.15625 -41.441406 6.15625 -47.671875 C 6.15625 -53.910156 7.222656 -59.820312 9.359375 -65.40625 C 11.492188 -71 14.503906 -75.976562 18.390625 -80.34375 C 22.285156 -84.707031 26.890625 -88.132812 32.203125 -90.625 C 37.523438 -93.125 43.367188 -94.375 49.734375 -94.375 C 55.191406 -94.375 60.070312 -93.5 64.375 -91.75 C 68.6875 -90 72.34375 -87.722656 75.34375 -84.921875 C 78.34375 -82.128906 80.644531 -79.160156 82.25 -76.015625 L 82.25 -91.609375 L 102.75 -91.609375 L 102.75 -10.515625 C 102.75 -4.097656 101.707031 1.851562 99.625 7.34375 C 97.550781 12.84375 94.460938 17.640625 90.359375 21.734375 C 86.265625 25.835938 81.226562 29.03125 75.25 31.3125 C 69.28125 33.601562 62.40625 34.75 54.625 34.75 Z M 54.453125 -20.9375 C 58.191406 -20.9375 61.695312 -21.632812 64.96875 -23.03125 C 68.238281 -24.425781 71.101562 -26.375 73.5625 -28.875 C 76.03125 -31.375 77.945312 -34.238281 79.3125 -37.46875 C 80.675781 -40.707031 81.359375 -44.140625 81.359375 -47.765625 C 81.359375 -51.328125 80.675781 -54.710938 79.3125 -57.921875 C 77.945312 -61.128906 76.046875 -63.96875 73.609375 -66.4375 C 71.171875 -68.90625 68.316406 -70.851562 65.046875 -72.28125 C 61.785156 -73.707031 58.253906 -74.421875 54.453125 -74.421875 C 49.398438 -74.421875 44.835938 -73.289062 40.765625 -71.03125 C 36.703125 -68.769531 33.476562 -65.648438 31.09375 -61.671875 C 28.71875 -57.691406 27.53125 -53.054688 27.53125 -47.765625 C 27.53125 -42.597656 28.71875 -37.992188 31.09375 -33.953125 C 33.476562 -29.910156 36.703125 -26.726562 40.765625 -24.40625 C 44.835938 -22.09375 49.398438 -20.9375 54.453125 -20.9375 Z M 54.453125 -20.9375 "/></g></g></g><g fill="#047638" fill-opacity="1"><g transform="translate(110.157562, 132.100537)"><g><path d="M 34.21875 0 L 12.65625 0 L 12.65625 -91.609375 L 33.328125 -91.609375 L 33.328125 -75.03125 C 35.460938 -80.082031 38.609375 -84.109375 42.765625 -87.109375 C 46.929688 -90.109375 51.984375 -91.609375 57.921875 -91.609375 L 67.734375 -91.609375 L 67.734375 -73.078125 L 59.078125 -73.078125 C 54.148438 -73.078125 49.8125 -71.890625 46.0625 -69.515625 C 42.320312 -67.140625 39.410156 -63.691406 37.328125 -59.171875 C 35.253906 -54.660156 34.21875 -49.132812 34.21875 -42.59375 Z M 34.21875 0 "/></g></g></g><g fill="#047638" fill-opacity="1"><g transform="translate(175.173394, 132.100537)"><g><path d="M 23.265625 -105.875 C 19.097656 -105.875 15.84375 -107.078125 13.5 -109.484375 C 11.15625 -111.890625 9.984375 -114.816406 9.984375 -118.265625 C 9.984375 -121.585938 11.15625 -124.46875 13.5 -126.90625 C 15.84375 -129.34375 19.125 -130.5625 23.34375 -130.5625 C 27.6875 -130.5625 31.03125 -129.34375 33.375 -126.90625 C 35.71875 -124.46875 36.890625 -121.585938 36.890625 -118.265625 C 36.890625 -114.816406 35.71875 -111.890625 33.375 -109.484375 C 31.03125 -107.078125 27.660156 -105.875 23.265625 -105.875 Z M 34.21875 0 L 12.65625 0 L 12.65625 -91.609375 L 34.21875 -91.609375 Z M 34.21875 0 "/></g></g></g><g fill="#047638" fill-opacity="1"><g transform="translate(216.483898, 132.100537)"><g><path d="M 91.34375 0 L 14.4375 0 L 14.4375 -121.203125 L 36.625 -121.203125 L 36.625 -19.875 L 91.34375 -19.875 Z M 91.34375 0 "/></g></g></g><g fill="#047638" fill-opacity="1"><g transform="translate(305.918, 132.100537)"><g><path d="M 23.265625 -105.875 C 19.097656 -105.875 15.84375 -107.078125 13.5 -109.484375 C 11.15625 -111.890625 9.984375 -114.816406 9.984375 -118.265625 C 9.984375 -121.585938 11.15625 -124.46875 13.5 -126.90625 C 15.84375 -129.34375 19.125 -130.5625 23.34375 -130.5625 C 27.6875 -130.5625 31.03125 -129.34375 33.375 -126.90625 C 35.71875 -124.46875 36.890625 -121.585938 36.890625 -118.265625 C 36.890625 -114.816406 35.71875 -111.890625 33.375 -109.484375 C 31.03125 -107.078125 27.660156 -105.875 23.265625 -105.875 Z M 34.21875 0 L 12.65625 0 L 12.65625 -91.609375 L 34.21875 -91.609375 Z M 34.21875 0 "/></g></g></g><g fill="#047638" fill-opacity="1"><g transform="translate(347.228504, 132.100537)"><g><path d="M 34.21875 0 L 12.65625 0 L 12.65625 -91.609375 L 33.15625 -91.609375 L 33.15625 -77.359375 C 34.9375 -80.679688 37.367188 -83.617188 40.453125 -86.171875 C 43.546875 -88.734375 47.140625 -90.738281 51.234375 -92.1875 C 55.335938 -93.644531 59.738281 -94.375 64.4375 -94.375 C 76.726562 -94.375 85.929688 -90.46875 92.046875 -82.65625 C 98.171875 -74.84375 101.234375 -63.75 101.234375 -49.375 L 101.234375 0 L 79.671875 0 L 79.671875 -48.921875 C 79.671875 -58.015625 77.769531 -64.550781 73.96875 -68.53125 C 70.164062 -72.507812 65 -74.5 58.46875 -74.5 C 54.25 -74.5 50.296875 -73.429688 46.609375 -71.296875 C 42.921875 -69.160156 39.929688 -66.039062 37.640625 -61.9375 C 35.359375 -57.832031 34.21875 -52.78125 34.21875 -46.78125 Z M 34.21875 0 "/></g></g></g><g fill="#047638" fill-opacity="1"><g transform="translate(454.93172, 132.100537)"><g><path d="M 96.6875 0 L 72.453125 0 L 48.65625 -41.265625 L 34.21875 -25.484375 L 34.21875 0 L 12.65625 0 L 12.65625 -125.484375 L 34.21875 -125.484375 L 34.21875 -48.65625 L 66.484375 -91.609375 L 92.765625 -91.609375 L 64.34375 -55.34375 Z M 96.6875 0 "/></g></g></g><g fill="#047638" fill-opacity="1"><g transform="translate(547.186996, 132.100537)"><g/></g></g></g></g><g transform="matrix(1, 0, 0, 1, 367, 619)"><g clip-path="url(#6c4cdcf7dc)"><g fill="#ffffff" fill-opacity="1"><g transform="translate(0.844474, 258.079133)"><g><path d="M 165.109375 0 L 129.328125 0 L 116.390625 -39.65625 L 50.484375 -39.65625 L 37.546875 0 L 2.59375 0 L 62.015625 -172.046875 L 105.6875 -172.046875 Z M 81.796875 -136.15625 L 59.671875 -68.25 L 106.96875 -68.25 L 84.734375 -136.15625 Z M 81.796875 -136.15625 "/></g></g></g></g></g></svg>